<svg aria-hidden="true" style="width:0;height:0;position:absolute;overflow:hidden" xmlns="http://www.w3.org/2000/svg"><defs><symbol id="icon-button-arrow" viewBox="0 0 32 32"><path d="M10.587 3.272c-.361.362-.585.861-.585 1.413s.223 1.051.585 1.413l9.899 9.901-9.899 9.901a2 2 0 0 0 2.828 2.825l-.001.001 11.315-11.315c.361-.362.585-.861.585-1.413s-.224-1.052-.585-1.413L13.414 3.27c-.362-.361-.861-.585-1.413-.585s-1.052.224-1.413.585z"/></symbol><symbol id="icon-arrow-long" viewBox="0 0 82 32"><path d="M81.414 17.414a2 2 0 0 0 0-2.828L68.686 1.858a2 2 0 1 0-2.828 2.828L77.172 16 65.858 27.314a2 2 0 1 0 2.828 2.828l12.728-12.728zM0 18h80v-4H0v4z"/></symbol></defs></svg>