<svg aria-hidden="true" style="position: absolute; width: 0; height: 0; overflow: hidden;" version="1.1" xmlns="http://www.w3.org/2000/svg" xmlns:xlink="http://www.w3.org/1999/xlink">
<defs>
<symbol id="icon-button-arrow" viewBox="0 0 32 32">
<path d="M10.587 3.272c-0.361 0.362-0.585 0.861-0.585 1.413s0.223 1.051 0.585 1.413l9.899 9.901-9.899 9.901c-0.333 0.356-0.537 0.836-0.537 1.363 0 1.105 0.895 2 2 2 0.527 0 1.007-0.204 1.365-0.538l-0.001 0.001 11.315-11.315c0.361-0.362 0.585-0.861 0.585-1.413s-0.224-1.052-0.585-1.413l-11.315-11.315c-0.362-0.361-0.861-0.585-1.413-0.585s-1.052 0.224-1.413 0.585l0-0z"></path>
</symbol>
<symbol id="icon-facebook" viewBox="0 0 16 32">
<path style="fill: var(--color1, #fcfcfc)" d="M14.143 15.972h-4.034v14.865h-6.112v-14.865h-2.907v-5.224h2.907v-3.381c0-2.418 1.142-6.203 6.166-6.203l4.527 0.019v5.071h-3.285c-0.539 0-1.296 0.271-1.296 1.424v3.075h4.567l-0.534 5.219z"></path>
</symbol>
<symbol id="icon-telegram" viewBox="0 0 44 32">
<path style="fill: var(--color1, #fcfcfc)" d="M17.346 21.048l-0.675 8.86c0.966 0 1.384-0.387 1.885-0.852l4.527-4.038 9.381 6.412c1.72 0.895 2.933 0.424 3.397-1.477l6.158-26.929 0.002-0.002c0.546-2.374-0.92-3.302-2.596-2.72l-36.194 12.933c-2.47 0.895-2.433 2.18-0.42 2.762l9.253 2.686 21.494-12.552c1.011-0.625 1.931-0.279 1.175 0.346l-17.386 14.57z"></path>
</symbol>
<symbol id="icon-git" viewBox="0 0 32 32">
<path style="fill: var(--color1, #fcfcfc)" d="M16 0c-8.788 0-16 7.212-16 16 0 7.499 5.262 14.312 12.25 16v-5.293c-0.692 0.152-1.33 0.156-2.034-0.052-0.946-0.279-1.714-0.909-2.284-1.869-0.364-0.613-1.008-1.278-1.68-1.23l-0.165-1.868c1.453-0.124 2.711 0.886 3.457 2.14 0.332 0.558 0.713 0.884 1.203 1.029 0.473 0.14 0.982 0.072 1.574-0.137 0.149-1.186 0.692-1.63 1.102-2.255v-0.001c-4.167-0.622-5.828-2.832-6.488-4.578-0.874-2.317-0.405-5.212 1.14-7.041 0.030-0.036 0.084-0.129 0.063-0.194-0.708-2.139 0.155-3.909 0.187-4.097 0.817 0.242 0.95-0.243 3.551 1.337l0.449 0.27c0.188 0.112 0.129 0.048 0.317 0.034 1.086-0.295 2.23-0.458 3.358-0.472 1.136 0.015 2.273 0.178 3.404 0.484l0.145 0.015c-0.013-0.002 0.040-0.009 0.127-0.062 3.248-1.968 3.132-1.324 4.003-1.608 0.032 0.188 0.883 1.987 0.182 4.099-0.095 0.291 2.816 2.956 1.203 7.235-0.659 1.746-2.32 3.957-6.487 4.578v0.001c0.534 0.814 1.176 1.247 1.173 2.927v6.608c6.988-1.688 12.25-8.501 12.25-16 0-8.788-7.212-16-16-16v0z"></path>
</symbol>
<symbol id="icon-arrow-long" viewBox="0 0 82 32">
<path d="M81.414 17.414c0.781-0.781 0.781-2.047 0-2.828l-12.728-12.728c-0.781-0.781-2.047-0.781-2.828 0s-0.781 2.047 0 2.828l11.314 11.314-11.314 11.314c-0.781 0.781-0.781 2.047 0 2.828s2.047 0.781 2.828 0l12.728-12.728zM0 18h80v-4h-80v4z"></path>
</symbol>

<symbol id="icon-close" viewBox="0 0 32 32">
<path d="M17.253 16l7.369-7.369c0.131-0.154 0.21-0.355 0.21-0.574 0-0.491-0.398-0.889-0.889-0.889-0.22 0-0.42 0.080-0.576 0.211l0.001-0.001-7.369 7.369-7.369-7.377c-0.164-0.18-0.399-0.292-0.661-0.292-0.493 0-0.893 0.4-0.893 0.893 0 0.261 0.112 0.496 0.291 0.659l0.001 0.001 7.379 7.369-7.379 7.369c-0.193 0.164-0.315 0.407-0.315 0.679 0 0.491 0.398 0.889 0.889 0.889 0.272 0 0.515-0.122 0.678-0.314l0.001-0.001 7.379-7.369 7.368 7.369c0.154 0.131 0.355 0.21 0.574 0.21 0.491 0 0.889-0.398 0.889-0.889 0-0.22-0.080-0.42-0.211-0.576l0.001 0.001-7.368-7.369z"></path>
</symbol>



<symbol id="button-close" viewBox="0 0 32 32">
<path d="M17.253 16l7.369-7.369c0.146-0.17 0.222-0.389 0.213-0.613s-0.101-0.436-0.26-0.594c-0.158-0.158-0.37-0.251-0.594-0.26s-0.442 0.067-0.612 0.213l-7.369 7.369-7.369-7.378c-0.167-0.167-0.394-0.261-0.631-0.261s-0.464 0.094-0.631 0.261c-0.167 0.167-0.261 0.394-0.261 0.631s0.094 0.464 0.261 0.631l7.378 7.369-7.378 7.369c-0.093 0.080-0.169 0.178-0.222 0.288s-0.083 0.23-0.088 0.353c-0.005 0.123 0.016 0.245 0.061 0.359s0.112 0.218 0.199 0.304c0.087 0.087 0.19 0.154 0.304 0.199s0.236 0.065 0.359 0.060c0.122-0.005 0.243-0.035 0.353-0.088s0.208-0.129 0.288-0.222l7.378-7.369 7.369 7.369c0.17 0.146 0.389 0.222 0.612 0.213s0.436-0.101 0.594-0.26c0.158-0.158 0.251-0.37 0.26-0.594s-0.067-0.442-0.213-0.612l-7.369-7.369z"></path>
</symbol>

<symbol id="icon-close" viewBox="0 0 32 32">
<path d="M17.253 16l7.369-7.369c0.131-0.154 0.21-0.355 0.21-0.574 0-0.491-0.398-0.889-0.889-0.889-0.22 0-0.42 0.080-0.576 0.211l0.001-0.001-7.369 7.369-7.369-7.377c-0.164-0.18-0.399-0.292-0.661-0.292-0.493 0-0.893 0.4-0.893 0.893 0 0.261 0.112 0.496 0.291 0.659l0.001 0.001 7.379 7.369-7.379 7.369c-0.193 0.164-0.315 0.407-0.315 0.679 0 0.491 0.398 0.889 0.889 0.889 0.272 0 0.515-0.122 0.678-0.314l0.001-0.001 7.379-7.369 7.368 7.369c0.154 0.131 0.355 0.21 0.574 0.21 0.491 0 0.889-0.398 0.889-0.889 0-0.22-0.080-0.42-0.211-0.576l0.001 0.001-7.368-7.369z"></path>
</symbol>



</defs>
</svg>
