<svg width="5" height="10" viewBox="0 0 5 10" fill="none" xmlns="http://www.w3.org/2000/svg">
<path d="M0.1912 0.220115C0.0687746 0.361098 0 0.552285 0 0.751634C0 0.950983 0.0687746 1.14217 0.1912 1.28315L3.42372 5.00454L0.1912 8.72592C0.0722442 8.86771 0.00642175 9.05762 0.00790964 9.25474C0.00939752 9.45186 0.0780765 9.64042 0.199154 9.77981C0.320232 9.91919 0.484021 9.99826 0.655244 9.99997C0.826468 10.0017 0.991425 9.92591 1.11459 9.78896L4.8088 5.53606C4.93123 5.39508 5 5.20389 5 5.00454C5 4.80519 4.93123 4.614 4.8088 4.47302L1.11459 0.220115C0.992127 0.0791756 0.826055 0 0.652894 0C0.479733 0 0.313661 0.0791756 0.1912 0.220115Z" fill="black"/>
</svg>
